<?xml version="1.0" encoding="utf-8"?>
<!-- Generator: Adobe Illustrator 17.0.0, SVG Export Plug-In . SVG Version: 6.00 Build 0)  -->
<!DOCTYPE svg PUBLIC "-//W3C//DTD SVG 1.1//EN" "http://www.w3.org/Graphics/SVG/1.1/DTD/svg11.dtd">
<svg version="1.1" id="Layer_1" xmlns="http://www.w3.org/2000/svg" xmlns:xlink="http://www.w3.org/1999/xlink" x="0px" y="0px"
	 width="48px" height="128px" viewBox="0 0 48 128" enable-background="new 0 0 48 128" xml:space="preserve">
<rect display="none" width="48" height="128"/>
<g id="Man">
	<path fill="#EFC3AD" stroke="#000000" stroke-width="0.5669" stroke-miterlimit="10" d="M42.956,67.199
		c-0.18-1.843-0.697-3.67-0.225-5.542c0.042-0.168-0.007-0.366-0.042-0.545c-0.239-1.223-0.279-2.469-0.338-3.703
		c-0.087-1.835-0.047-3.678-0.025-5.517c0.013-1.07-0.069-2.123-0.384-3.145c-0.862-2.797-1.002-6.789-1.002-9.004
		c-0.338-4.834,0.269-10.396-0.783-13.469c-0.534-1.559-1.406-2.686-2.818-3.448c-1.104-0.596-2.35-0.768-3.526-1.151
		c-1.559-0.508-3.161-0.89-4.706-1.439c-2.217-0.787-2.432-2.621-1.402-4.271c0.625-1,1.633-2.772,1.633-4.245
		c0.8-0.157,1.159-4.066,0.371-3.898c-0.102-1.305-0.182-2.979-0.874-4.162C27.633,1.6,24.604,0.422,21.919,1.27
		c-2.289,0.724-3.565,2.234-3.934,4.618c-0.17,1.1-0.063,0.772-0.238,1.932c-0.786-0.069-0.626,3.451,0.124,3.899
		c0.34,1.442,1.355,3.299,2.088,4.258c1.102,1.442,0.296,3.836-1.435,4.359c-2.2,0.664-4.392,1.352-6.599,1.991
		c-2.219,0.642-3.575,2.106-4.276,4.263c-0.306,0.942-0.486,1.875-0.577,2.884c-0.1,1.1-0.003,2.289,0.017,3.386
		c0.046,2.525-0.111,8.129-0.098,8.458c0.098,2.434-0.239,4.81-0.897,7.152c-0.196,0.699-0.388,1.423-0.416,2.142
		c-0.108,2.75,0.032,5.504-0.207,8.257c-0.141,1.629-0.032,3.28-0.041,4.92c-0.002,0.438-0.077,0.87-0.13,1.303
		c-0.145,1.181-0.467,2.346-0.085,3.578c0.627,2.021,1.804,3.496,3.754,4.336c0.357,0.154,0.736,0.245,0.977-0.158
		c0.209-0.35-0.164-0.512-0.333-0.725c-0.137-0.172-0.29-0.343-0.47-0.464c-1.299-0.881-1.099-2.215-1.056-3.493
		c0.01-0.309,0.214-0.625,0.514-0.639c0.402-0.019,0.363,0.37,0.375,0.656c0.01,0.22-0.033,0.45,0.014,0.661
		c0.142,0.628,0.105,1.329,0.68,1.798c0.174,0.142,0.341,0.299,0.583,0.238c0.286-0.072,0.256-0.322,0.255-0.538
		c-0.002-1.288-0.006-2.576-0.02-3.864c-0.002-0.178-0.03-0.37-0.102-0.529c-0.345-0.757-0.715-1.502-1.065-2.257
		c-0.467-1.008-0.519-2.081-0.241-3.12c0.869-3.242,1.829-6.463,2.42-9.771c0.359-2.009,0.774-4.02,0.769-6.075
		c-0.002-0.921,0.213-1.62,0.287-2.684c0.008-0.116,0.019-0.354,0.138-0.473c0.156,0.059,0.214,0.329,0.236,0.49
		c0.111,0.832,0.891,4.91,0.936,6.157c-0.015,1.063,0.028,2.132-0.057,3.19c-0.228,2.822-1.133,6.657-1.919,9.296
		c-0.786,2.639-0.835,4.139-0.915,6.243c-0.152,4.001,0.391,11.566,1.768,18.086c0.318,1.507,0.509,3.02,0.437,4.57
		c-0.059,1.249-0.007,2.502-0.012,3.754c-0.002,0.478,0.041,0.969-0.051,1.432c-0.439,2.213-0.877,4.404-0.662,6.703
		c0.122,1.306,0.137,2.652,0.328,3.936c0.515,3.459,0.931,6.937,1.653,10.367c0.239,1.137,0.205,2.311-0.77,3.281
		c-0.362,0.36-0.711,0.845-0.93,1.344c-0.268,0.61-0.684,1.056-1.267,1.316c-0.893,0.398-1.491,1.177-2.297,1.684
		c-0.252,0.159-0.403,0.389-0.438,0.722c-0.109,1.046,0.373,1.824,1.366,2.11c0.244,0.071,0.51,0.083,0.742,0.179
		c1.412,0.584,2.055,0.471,3.146-0.582c0.342-0.33,0.642-0.707,1.104-0.898c0.383-0.158,0.594-0.436,0.787-0.84
		c0.364-0.762,0.95-1.339,1.862-1.54c1.188-0.261,1.432-0.593,1.376-1.854c-0.049-1.094-0.329-2.173-0.241-3.28
		c0.006-0.07-0.014-0.149-0.043-0.213c-0.751-1.661-0.488-3.434-0.308-5.109c0.284-2.637,1.048-5.208,1.334-7.867
		c0.194-1.804,0.275-3.613,0.072-5.38c-0.211-1.836-0.19-3.574,0.516-5.276c0.916-2.209,1.281-4.49,1.107-6.878
		c-0.177-2.426,0.143-4.831,0.496-7.222c0.389-2.63,0.959-5.233,1.271-7.876c0.032-0.266,0.124-0.498,0.235-0.727
		c0.096-0.199,0.227-0.405,0.493-0.352c0.192,0.039,0.305,0.208,0.345,0.391c0.094,0.428,0.174,0.859,0.247,1.29
		c0.342,2.011,0.72,4.017,1.007,6.036c0.323,2.275,0.805,4.535,0.771,6.853c-0.016,1.104,0.04,2.211-0.019,3.312
		c-0.089,1.655,0.357,3.184,0.943,4.695c0.615,1.586,1.138,3.233,0.777,4.928c-0.451,2.118-0.389,4.227-0.122,6.325
		c0.322,2.528,0.912,5.016,1.405,7.518c0.289,1.469,0.31,3.025-0.022,4.491c-0.35,1.548-0.414,3.107-0.531,4.666
		c-0.071,0.946,0.262,1.352,1.202,1.533c0.665,0.128,1.281,0.388,1.542,0.941c0.569,1.204,1.77,1.696,2.634,2.558
		c0.942,0.941,1.724,0.944,2.945,0.234c0.232-0.135,0.438,0.008,0.605-0.038c0.578-0.158,1.197-0.331,1.407-1.011
		c0.229-0.739,0.03-1.517-0.473-1.9c-0.611-0.465-1.19-0.988-1.854-1.362c-1.002-0.565-1.682-1.39-2.218-2.364
		c-0.145-0.264-0.318-0.497-0.534-0.695c-0.5-0.457-0.645-1.025-0.655-1.686c-0.028-1.846,0.518-3.607,0.749-5.414
		c0.176-1.374,0.486-2.724,0.617-4.107c0.147-1.562,0.397-3.113,0.517-4.682c0.142-1.867,0.271-3.722-0.052-5.582
		c-0.3-1.73-0.597-3.455-0.506-5.234c0.124-2.407-0.23-4.841,0.434-7.216C36.608,79.742,36.9,74.221,36.84,68
		c-0.022-2.246-0.329-5.463-0.731-6.805c-1-3.336-2.187-9.017-2.187-12.783c0-1.753,0.787-7.17,0.996-7.17
		c0.188,0,0.877,4.862,1.177,7.291c0.255,2.068,0.59,4.114,1.157,6.116c0.507,1.79,1.063,3.566,1.592,5.35
		c0.165,0.556,0.471,1.122,0.319,1.699c-0.268,1.014-0.384,2.089-1.061,2.97c-0.192,0.25-0.339,0.594-0.363,0.905
		c-0.12,1.605-0.195,3.214-0.282,4.821c-0.015,0.272,0.04,0.547,0.313,0.65c0.31,0.117,0.439-0.149,0.585-0.367
		c0.247-0.368,0.452-0.725,0.452-1.206c0-0.468,0.125-0.938,0.212-1.404c0.034-0.184,0.144-0.352,0.339-0.393
		c0.233-0.049,0.289,0.168,0.39,0.312c0.531,0.757,0.126,1.559,0.067,2.328c-0.041,0.534-0.296,1.05-0.875,1.311
		c-0.384,0.174-0.599,0.532-0.742,0.922c-0.091,0.249-0.153,0.526,0.078,0.712c0.197,0.159,0.409-0.005,0.614-0.085
		c1.857-0.727,3.121-1.998,3.654-3.948C42.725,68.56,43.025,67.907,42.956,67.199z"/>
	<g>
		<g>
			<path fill="#EF6A4C" stroke="#000000" stroke-width="0.2835" stroke-miterlimit="10" d="M14.105,84.729
				c0.207,0.31,1.338,0.342,1.863,0.34c2.298-0.007,3.185-0.484,3.206-1.896c0.019-1.294,0.159-2.904,0.311-4.468
				c-2.323-0.042-4.624-0.116-6.9-0.22C13.047,81.304,13.711,84.139,14.105,84.729z"/>
			<path fill="#EF6A4C" stroke="#000000" stroke-width="0.2835" stroke-miterlimit="10" d="M17.014,71.793
				c-1.386-0.1-3.983-0.288-4.726,0.521c-0.434,0.473-0.172,3.314,0.296,6.171c2.276,0.105,4.577,0.179,6.9,0.22
				c0.172-1.775,0.36-3.491,0.404-4.618C19.951,72.459,19.376,71.963,17.014,71.793z"/>
		</g>
		<g>
			<path fill="#EF6A4C" stroke="#000000" stroke-width="0.2835" stroke-miterlimit="10" d="M28.826,83.173
				c0.021,1.412,0.907,1.888,3.206,1.896c0.525,0.002,1.655-0.031,1.863-0.34c0.395-0.59,1.058-3.424,1.521-6.244
				c-2.276,0.105-4.577,0.179-6.9,0.22C28.667,80.269,28.807,81.879,28.826,83.173z"/>
			<path fill="#EF6A4C" stroke="#000000" stroke-width="0.2835" stroke-miterlimit="10" d="M35.712,72.314
				c-0.742-0.81-3.339-0.621-4.726-0.521c-2.362,0.17-2.938,0.666-2.875,2.294c0.044,1.127,0.231,2.843,0.404,4.618
				c2.323-0.042,4.624-0.116,6.9-0.22C35.884,75.628,36.146,72.788,35.712,72.314z"/>
		</g>
	</g>
	<g>
		<g>
			<path fill="#EF6A4C" stroke="#000000" stroke-width="0.2835" stroke-miterlimit="10" d="M14.105,84.729
				c0.207,0.31,1.338,0.342,1.863,0.34c2.298-0.007,3.185-0.484,3.206-1.896c0.019-1.294,0.159-2.904,0.311-4.468
				c-2.323-0.042-4.624-0.116-6.9-0.22C13.047,81.304,13.711,84.139,14.105,84.729z"/>
			<path fill="#EF6A4C" stroke="#000000" stroke-width="0.2835" stroke-miterlimit="10" d="M17.014,71.793
				c-1.386-0.1-3.983-0.288-4.726,0.521c-0.434,0.473-0.172,3.314,0.296,6.171c2.276,0.105,4.577,0.179,6.9,0.22
				c0.172-1.775,0.36-3.491,0.404-4.618C19.951,72.459,19.376,71.963,17.014,71.793z"/>
		</g>
		<g>
			<path fill="#EF6A4C" stroke="#000000" stroke-width="0.2835" stroke-miterlimit="10" d="M28.826,83.173
				c0.021,1.412,0.907,1.888,3.206,1.896c0.525,0.002,1.655-0.031,1.863-0.34c0.395-0.59,1.058-3.424,1.521-6.244
				c-2.276,0.105-4.577,0.179-6.9,0.22C28.667,80.269,28.807,81.879,28.826,83.173z"/>
			<path fill="#EF6A4C" stroke="#000000" stroke-width="0.2835" stroke-miterlimit="10" d="M35.712,72.314
				c-0.742-0.81-3.339-0.621-4.726-0.521c-2.362,0.17-2.938,0.666-2.875,2.294c0.044,1.127,0.231,2.843,0.404,4.618
				c2.323-0.042,4.624-0.116,6.9-0.22C35.884,75.628,36.146,72.788,35.712,72.314z"/>
		</g>
	</g>
	<g>
		<path fill="#EF6A4C" stroke="#000000" stroke-width="0.2835" stroke-miterlimit="10" d="M7.071,29.482
			c-0.099,1.097-0.002,2.283,0.018,3.377c0.035,1.937-0.049,5.683-0.084,7.473c1.456-0.051,1.801-0.409,1.801-1.653
			c0-2.724,0.048-5.132-0.034-7.813C8.737,29.764,8.584,29.523,7.071,29.482z"/>
		<path fill="#EF6A4C" stroke="#000000" stroke-width="0.2835" stroke-miterlimit="10" d="M40.716,29.487
			c-1.362,0.055-1.501,0.317-1.534,1.38c-0.082,2.681-0.034,5.089-0.034,7.813c0,1.242,0.344,1.601,1.796,1.653
			c-0.002-0.207-0.004-0.406-0.004-0.59C40.7,36.306,40.937,32.503,40.716,29.487z"/>
	</g>
	<g>
		<path fill="#EF6A4C" stroke="#000000" stroke-width="0.2835" stroke-miterlimit="10" d="M26.202,55.344
			c0.003,0.046,0.007,0.092,0.007,0.139c0,1.22-0.989,2.209-2.209,2.209v3.864c3.156,0,6.189-0.129,9.023-0.364
			c-0.54-1.868-0.955-3.942-1.219-6.16C29.968,55.192,28.099,55.298,26.202,55.344z"/>
		<path fill="#EF6A4C" stroke="#000000" stroke-width="0.2835" stroke-miterlimit="10" d="M31.804,55.031
			c0.264,2.218,0.679,4.293,1.219,6.16c1.026-0.085,2.028-0.183,2.998-0.296c-0.491-1.689-1.018-3.904-1.42-6.154
			C33.678,54.853,32.745,54.949,31.804,55.031z"/>
		<path fill="#EF6A4C" stroke="#000000" stroke-width="0.2835" stroke-miterlimit="10" d="M31.501,47.844
			c-2.389-0.162-4.904-0.248-7.501-0.248v5.679c1.173,0,2.13,0.915,2.202,2.07c1.898-0.046,3.766-0.152,5.603-0.313
			c-0.213-1.796-0.328-3.685-0.328-5.636C31.476,48.873,31.485,48.356,31.501,47.844z"/>
		<path fill="#EF6A4C" stroke="#000000" stroke-width="0.2835" stroke-miterlimit="10" d="M33.931,48.038
			c-0.794-0.073-1.604-0.138-2.43-0.194c-0.016,0.512-0.025,1.029-0.025,1.551c0,1.951,0.115,3.841,0.328,5.636
			c0.941-0.082,1.874-0.178,2.796-0.289c-0.4-2.237-0.679-4.507-0.679-6.33C33.922,48.301,33.925,48.176,33.931,48.038z"/>
		<path fill="#EF6A4C" stroke="#000000" stroke-width="0.2835" stroke-miterlimit="10" d="M21.791,55.483
			c0-0.047,0.004-0.093,0.007-0.139c-1.898-0.046-3.766-0.152-5.603-0.313c-0.264,2.218-0.679,4.292-1.219,6.16
			c2.835,0.235,5.867,0.364,9.023,0.364v-3.864C22.78,57.691,21.791,56.703,21.791,55.483z"/>
		<path fill="#EF6A4C" stroke="#000000" stroke-width="0.2835" stroke-miterlimit="10" d="M11.89,60.7
			c-0.018,0.062-0.034,0.12-0.052,0.18c1.014,0.119,2.063,0.222,3.139,0.311c0.54-1.868,0.955-3.942,1.219-6.16
			c-0.962-0.084-1.915-0.182-2.858-0.297C12.946,56.827,12.394,59.008,11.89,60.7z"/>
		<path fill="#EF6A4C" stroke="#000000" stroke-width="0.2835" stroke-miterlimit="10" d="M16.524,49.395
			c0,1.951-0.115,3.841-0.328,5.636c1.836,0.161,3.705,0.267,5.603,0.313c0.072-1.155,1.029-2.07,2.202-2.07v-5.679
			c-2.598,0-5.111,0.088-7.501,0.249C16.515,48.357,16.524,48.874,16.524,49.395z"/>
		<path fill="#EF6A4C" stroke="#000000" stroke-width="0.2835" stroke-miterlimit="10" d="M13.858,48.058
			c0.004,0.056,0.007,0.109,0.009,0.156c-0.015,1.063,0.028,2.132-0.057,3.19c-0.082,1.014-0.252,2.159-0.472,3.331
			c0.943,0.114,1.896,0.213,2.858,0.297c0.213-1.796,0.328-3.685,0.328-5.636c0-0.521-0.009-1.038-0.025-1.55
			C15.601,47.906,14.718,47.976,13.858,48.058z"/>
	</g>
	<g>
		
			<ellipse transform="matrix(0.9975 0.071 -0.071 0.9975 1.8651 -1.281)" fill="#EE694C" stroke="#000000" stroke-width="0.2835" stroke-miterlimit="10" cx="18.943" cy="25.581" rx="3.989" ry="2.16"/>
		
			<ellipse transform="matrix(-0.9975 0.071 -0.071 -0.9975 59.8587 49.0331)" fill="#EE694C" stroke="#000000" stroke-width="0.2835" stroke-miterlimit="10" cx="29.057" cy="25.581" rx="3.989" ry="2.16"/>
	</g>
</g>
<g id="Man_Back_1_">
	<path fill="#EFC3AD" stroke="#000000" stroke-width="0.5669" stroke-miterlimit="10" d="M42.701,65.091
		c-0.053-0.433-0.128-0.865-0.13-1.303c-0.009-1.641,0.1-3.291-0.041-4.92c-0.239-2.753-0.099-5.506-0.207-8.257
		c-0.028-0.719-0.219-1.443-0.416-2.142c-0.658-2.341-0.995-4.717-0.897-7.152c0.013-0.329-0.144-5.933-0.098-8.458
		c0.02-1.097,0.117-2.286,0.017-3.386c-0.092-1.009-0.271-1.942-0.577-2.884c-0.701-2.157-2.057-3.621-4.276-4.263
		c-2.207-0.638-4.4-1.327-6.599-1.991c-1.732-0.523-2.537-2.916-1.435-4.359c0.732-0.959,1.747-2.816,2.088-4.258
		c0.749-0.448,0.91-3.967,0.124-3.899c-0.175-1.16-0.068-0.832-0.238-1.932c-0.369-2.384-1.645-3.894-3.934-4.618
		c-2.685-0.849-5.713,0.33-6.916,2.388c-0.691,1.183-0.771,2.857-0.874,4.162c-0.789-0.167-0.429,3.742,0.371,3.898
		c0,1.473,1.008,3.245,1.633,4.245c1.03,1.649,0.815,3.484-1.402,4.271c-1.546,0.548-3.147,0.931-4.706,1.439
		c-1.175,0.383-2.421,0.555-3.526,1.151c-1.411,0.762-2.284,1.889-2.818,3.448C6.79,29.346,7.398,34.908,7.06,39.742
		c0,2.215-0.14,6.207-1.002,9.004c-0.315,1.022-0.397,2.075-0.384,3.145c0.022,1.839,0.062,3.681-0.025,5.517
		c-0.059,1.234-0.099,2.48-0.338,3.703c-0.035,0.179-0.084,0.377-0.042,0.545c0.472,1.872-0.045,3.699-0.225,5.542
		c-0.069,0.708,0.23,1.361,0.412,2.028c0.533,1.95,1.797,3.221,3.654,3.948c0.205,0.08,0.417,0.244,0.614,0.085
		c0.231-0.186,0.169-0.463,0.078-0.712c-0.143-0.39-0.358-0.749-0.742-0.922c-0.579-0.262-0.834-0.777-0.875-1.311
		c-0.059-0.769-0.464-1.57,0.067-2.328c0.101-0.144,0.157-0.362,0.39-0.312c0.195,0.041,0.305,0.209,0.339,0.393
		c0.087,0.466,0.211,0.936,0.212,1.404c0,0.481,0.205,0.838,0.452,1.206c0.146,0.218,0.275,0.484,0.585,0.367
		c0.273-0.103,0.328-0.378,0.313-0.65c-0.088-1.608-0.162-3.216-0.282-4.821c-0.023-0.312-0.17-0.655-0.363-0.905
		c-0.677-0.881-0.793-1.956-1.061-2.97c-0.152-0.577,0.154-1.142,0.319-1.699c0.528-1.784,1.085-3.56,1.592-5.35
		c0.568-2.003,0.902-4.048,1.157-6.116c0.3-2.429,0.989-7.291,1.177-7.291c0.209,0,0.996,5.417,0.996,7.17
		c0,3.766-1.188,9.446-2.187,12.783c-0.402,1.342-0.709,4.559-0.731,6.805c-0.06,6.221,0.231,11.741,1.627,17.012
		c0.664,2.375,0.31,4.809,0.434,7.216c0.091,1.779-0.205,3.504-0.506,5.234c-0.323,1.861-0.194,3.715-0.052,5.582
		c0.12,1.569,0.37,3.119,0.517,4.682c0.13,1.383,0.441,2.733,0.617,4.107c0.133,1.039,0.37,2.064,0.542,3.098
		c0.005,0.03,0.007,0.059,0.012,0.089c0.19,1.106-0.306,2.289-1.394,3.041c-1.142,0.79-2.314,1.525-3.672,1.901
		c-0.316,0.088-0.643,0.175-0.927,0.331c-0.252,0.138-0.49,0.357-0.442,0.703c0.049,0.353,0.323,0.42,0.624,0.512
		c0.754,0.228,1.531,0.135,2.29,0.23c1.963,0.245,3.935,0.336,5.907,0.397c1.333,0.041,1.899-0.62,1.986-1.94
		c0.066-1.005-0.309-1.96-0.271-2.951c0.03-0.772-0.047-1.543-0.045-2.314c-0.077-1.021-0.008-2.057,0.188-3.053
		c0.493-2.502,1.083-4.99,1.405-7.518c0.267-2.098,0.329-4.207-0.122-6.325c-0.361-1.695,0.162-3.341,0.777-4.928
		c0.586-1.512,1.032-3.04,0.943-4.695c-0.059-1.101-0.003-2.208-0.019-3.312c-0.034-2.317,0.448-4.577,0.771-6.853
		c0.287-2.019,0.665-4.025,1.007-6.036c0.073-0.432,0.154-0.863,0.247-1.29c0.04-0.184,0.153-0.353,0.345-0.391
		c0.266-0.053,0.397,0.153,0.493,0.352c0.111,0.229,0.204,0.46,0.235,0.727c0.313,2.643,0.882,5.246,1.271,7.876
		c0.354,2.391,0.673,4.796,0.496,7.222c-0.174,2.388,0.191,4.669,1.107,6.878c0.706,1.702,0.727,3.44,0.516,5.276
		c-0.203,1.767-0.122,3.577,0.072,5.38c0.286,2.658,1.05,5.229,1.334,7.867c0.099,0.922,0.223,1.875,0.189,2.821
		c-0.01,0.202,0.006,0.379,0.003,0.57c-0.027,1.524-0.117,3.051-0.353,4.577c-0.028,0.179-0.026,0.372,0.006,0.551
		c0.116,0.652,0.401,1.134,1.106,1.357c0.548,0.173,1.112,0.265,1.624,0.131c0.914-0.241,1.826-0.133,2.737-0.18
		c1.533-0.08,3.061-0.206,4.581-0.429c0.352-0.051,0.701-0.105,0.721-0.518c0.018-0.378-0.126-0.747-0.575-0.809
		c-1.248-0.172-2.215-0.948-3.263-1.53c-1.099-0.611-2.452-1.347-2.541-2.78c-0.019-0.313-0.023-0.557,0.025-0.938h0.001
		c0.511-3.073,1.009-6.337,1.481-9.508c0.191-1.284,0.206-2.63,0.328-3.936c0.215-2.299-0.223-4.49-0.662-6.703
		c-0.092-0.462-0.049-0.954-0.051-1.432c-0.005-1.251,0.047-2.505-0.012-3.754c-0.073-1.55,0.118-3.064,0.437-4.57
		c1.377-6.52,1.92-14.084,1.768-18.086c-0.08-2.104-0.129-3.604-0.915-6.243c-0.786-2.639-1.691-6.474-1.919-9.296
		c-0.085-1.058-0.042-2.126-0.057-3.19c0.045-1.247,0.825-5.325,0.936-6.157c0.021-0.161,0.08-0.431,0.236-0.49
		c0.119,0.119,0.13,0.357,0.138,0.473c0.074,1.064,0.29,1.763,0.287,2.684c-0.005,2.055,0.41,4.065,0.769,6.075
		c0.59,3.309,1.551,6.529,2.42,9.771c0.278,1.039,0.226,2.112-0.241,3.12c-0.35,0.755-0.72,1.5-1.065,2.257
		c-0.073,0.16-0.1,0.352-0.102,0.529c-0.014,1.288-0.017,2.576-0.02,3.864c0,0.215-0.031,0.465,0.255,0.538
		c0.242,0.061,0.409-0.096,0.583-0.238c0.575-0.469,0.538-1.169,0.68-1.798c0.048-0.21,0.004-0.44,0.014-0.661
		c0.013-0.286-0.027-0.674,0.375-0.656c0.3,0.014,0.504,0.33,0.514,0.639c0.043,1.278,0.243,2.612-1.056,3.493
		c-0.18,0.122-0.333,0.293-0.47,0.464c-0.169,0.213-0.542,0.375-0.333,0.725c0.241,0.403,0.62,0.312,0.977,0.158
		c1.95-0.84,3.128-2.316,3.754-4.336C43.168,67.437,42.846,66.273,42.701,65.091z"/>
	<g>
		<path fill="#EE694C" stroke="#000000" stroke-width="0.2835" stroke-miterlimit="10" d="M12.175,37.936
			c0,1.801-0.29,2.754-1.449,2.754c-0.657,0-1.232-0.123-1.815-0.168c-0.849-0.066-1.341-0.564-1.176-2.307
			c0.203-2.149-0.038-6.275,0.102-7.509c0.121-1.067,0.515-1.41,1.399-1.41c0.68,0,0.986,0.045,2.034,0.045
			c0.906,0,1.127,0.762,1.127,2.046C12.396,32.589,12.175,36.698,12.175,37.936z"/>
		<path fill="#EE694C" stroke="#000000" stroke-width="0.2835" stroke-miterlimit="10" d="M35.825,37.936
			c0,1.801,0.29,2.754,1.449,2.754c0.657,0,1.232-0.123,1.815-0.168c0.849-0.066,1.341-0.564,1.176-2.307
			c-0.203-2.149,0.038-6.275-0.102-7.509c-0.121-1.067-0.515-1.41-1.399-1.41c-0.68,0-0.986,0.045-2.034,0.045
			c-0.906,0-1.127,0.762-1.127,2.046C35.604,32.589,35.825,36.698,35.825,37.936z"/>
	</g>
	<g>
		<path fill="#EF6A4C" stroke="#000000" stroke-width="0.2835" stroke-miterlimit="10" d="M11.645,78.96
			c0.252,2.068,0.62,4.078,1.143,6.052c0.026,0.092,0.047,0.184,0.07,0.276c0.634-0.157,1.154-0.387,1.147-1.192
			c-0.014-1.737-0.02-3.474-0.021-5.211C13.219,78.929,12.437,78.953,11.645,78.96z"/>
		<path fill="#EF6A4C" stroke="#000000" stroke-width="0.2835" stroke-miterlimit="10" d="M14,73.748
			c0.004-0.609-0.309-0.838-0.894-0.954c-0.633-0.125-1.27-0.151-1.91-0.154c0.062,2.179,0.199,4.278,0.448,6.32
			c0.793-0.007,1.574-0.031,2.339-0.075C13.984,77.173,13.989,75.46,14,73.748z"/>
		<path fill="#EF6A4C" stroke="#000000" stroke-width="0.2835" stroke-miterlimit="10" d="M33.995,84.096
			c-0.007,0.83,0.546,1.049,1.206,1.207c0.018-0.091,0.036-0.183,0.055-0.274c0.416-1.971,0.755-4.036,1.023-6.07
			c-0.767-0.01-1.523-0.035-2.264-0.079C34.016,80.619,34.009,82.358,33.995,84.096z"/>
		<path fill="#EF6A4C" stroke="#000000" stroke-width="0.2835" stroke-miterlimit="10" d="M34.894,72.794
			c-0.585,0.116-0.897,0.344-0.894,0.954c0.01,1.711,0.016,3.421,0.016,5.132c0.741,0.044,1.497,0.069,2.264,0.079
			c0.289-2.197,0.494-4.356,0.62-6.319C36.228,72.641,35.559,72.663,34.894,72.794z"/>
	</g>
	<g>
		<path fill="#EF6A4C" stroke="#000000" stroke-width="0.2835" stroke-miterlimit="10" d="M12.842,61.903
			c0.129-1.13,0.567-3.081,1.318-4.021c1.152-1.441,1.591-1.672,5.308-1.04s3.465,3.887,2.844,7.627
			c-0.469,2.826-6.135,3.293-8.548,1.317C12.796,64.994,12.695,63.268,12.842,61.903z"/>
		<path fill="#EF6A4C" stroke="#000000" stroke-width="0.2835" stroke-miterlimit="10" d="M35.158,61.903
			c-0.129-1.13-0.567-3.081-1.318-4.021c-1.152-1.441-1.591-1.672-5.308-1.04s-3.465,3.887-2.844,7.627
			c0.469,2.826,6.135,3.293,8.548,1.317C35.204,64.994,35.305,63.268,35.158,61.903z"/>
	</g>
</g>
<g id="Woman_1_">
	<path fill="#EFC3AD" stroke="#000000" stroke-width="0.5669" stroke-miterlimit="10" d="M41.958,63.514
		c-0.645-1.377-0.83-2.879-1.043-4.34c-0.295-2.018-0.321-4.077-0.437-6.118c-0.125-2.192-0.123-4.392-0.252-6.589
		c-0.091-1.547-0.427-3.034-0.887-4.487c-0.399-1.262-0.788-2.492-0.699-3.844c0.045-0.688-0.172-4.273-0.172-4.877
		c-0.141-0.98-0.144-1.969-0.104-2.952c0.07-1.72,0.041-3.432-0.232-5.135c-0.068-0.319-0.188-0.884-0.267-1.159
		c-0.501-1.724-1.349-2.831-3.111-3.287c-1.8-0.467-3.612-0.899-5.339-1.608c-0.373-0.153-0.744-0.323-1.083-0.537
		c-0.201-0.126-0.48-0.285-0.409-0.592c0.055-0.236,0.324-0.274,0.521-0.352c0.133-0.052,0.293-0.031,0.432-0.07
		c1.533-0.433,2.949-1.093,4.128-2.189c0.231-0.215,0.58-0.427-0.047-0.683c-1.402-0.573-1.893-1.694-1.829-3.174
		c0.083-1.941-0.023-3.869-0.386-5.795c-0.453-2.405-1.951-3.73-4.15-4.479c-2.138-0.728-4.185,0.326-6.286,0.274
		c-0.064-0.002-0.135,0.056-0.193,0.098c-1.076,0.777-2.045,1.64-2.659,2.861c-1.06,2.105-1.654,4.332-2.098,6.643
		c-0.548,2.855,1.257,5.532,3.861,6.287c0.351,0.102,0.973,0.015,1.004,0.436c0.031,0.417-0.475,0.69-0.875,0.894
		c-0.164,0.083-0.326,0.169-0.489,0.253c-1.574,0.818-3.311,1.148-5,1.59c-2.714,0.71-3.94,3.782-4.076,5.624
		c-0.242,3.291-0.13,6.59-0.227,9.884c0.034,2.06-0.113,4.102-0.855,6.043c-0.501,1.31-0.865,2.688-0.89,4.042
		c-0.064,3.409-0.381,6.801-0.485,10.204c-0.084,2.753-0.495,5.428-1.454,8.015c-0.823,2.22,0.102,4.533,2.158,5.566
		C8.596,70.25,9.136,70.1,9.414,69.74c0.375-0.486-0.233-0.748-0.559-0.992c-0.976-0.73-1.405-1.872-1.08-2.992
		c0.053-0.181,0.143-0.36,0.341-0.389c0.245-0.035,0.25,0.189,0.326,0.352c0.227,0.49,0.149,1.01,0.186,1.519
		c0.017,0.229,0.053,0.454,0.353,0.456c0.251,0.001,0.44-0.146,0.48-0.375c0.057-0.322,0.07-0.657,0.059-0.985
		c-0.022-0.593,0.012-1.175,0.245-1.726c0.29-0.684,0.276-1.371-0.038-2.026c-0.489-1.021-0.389-2.029-0.094-3.074
		c0.989-3.509,1.845-7.053,2.915-10.542c0.802-2.616,1.237-5.325,1.356-8.065c0.098-2.23,0.488-4.425,0.689-6.641
		c0.02-0.219,0.075-0.833,0.211-0.85c0.209-0.026,0.418,0.5,0.5,0.715c0.095,0.248,0.125,0.474,0.183,0.723
		c0.457,1.957,1.478,8.831-0.465,12.43c-0.702,1.299-1.948,5.687-2.048,6.048c-0.741,2.681-1.132,5.438-1.219,8.202
		c-0.144,4.541,0.448,9.897,1.331,13.876c0.409,1.844,0.674,3.727,1.327,5.514c0.03,1.972-0.308,3.965,0.328,5.904
		c0.083,0.252,0.047,0.499-0.02,0.757c-0.182,0.706-0.315,1.424-0.508,2.126c-0.875,3.187-0.503,6.421-0.195,9.613
		c0.213,2.206,0.441,4.424,0.739,6.629c0.2,1.477,0.467,2.953,0.59,4.45c0.134,1.626-0.316,3.084-0.755,4.576
		c-0.048,0.164-0.196,0.311-0.325,0.437c-0.814,0.793-1.529,1.683-2.48,2.341c-0.84,0.582-0.713,1.475,0.22,1.866
		c0.47,0.198,0.969,0.332,1.428,0.55c1.056,0.502,1.705,0.375,2.596-0.306c1.035-0.791,1.873-1.839,3.089-2.39
		c0.429-0.194,0.566-0.51,0.568-0.966c0.005-1.213-0.29-2.391-0.383-3.591c-0.068-0.876-0.582-1.697-0.463-2.57
		c0.304-2.238,0.701-4.463,1.059-6.694c0.294-1.834,0.56-3.674,0.885-5.503c0.304-1.714,0.412-3.435-0.026-5.119
		c-0.293-1.126-0.152-2.176,0.145-3.234c0.644-2.299,1.254-4.601,0.971-7.02c-0.119-1.019-0.259-2.028-0.233-3.061
		c0.018-0.702,0.658-5.251,0.803-6.854c0.22-2.432,0.764-5.733,0.764-8.507c0-0.516,0.255-0.629,0.686-0.596
		c0.377,0.029,0.831-0.135,0.873,0.524c0.143,2.259,0.384,4.51,0.607,6.762c0.204,2.072,0.61,4.114,0.761,6.194
		c0.124,1.702,0.529,3.388,0.152,5.103c-0.102,0.463-0.205,0.918-0.218,1.403c-0.048,1.858,0.388,3.629,0.922,5.379
		c0.403,1.321,0.52,2.616,0.265,3.998c-0.169,0.92-0.437,1.873-0.257,2.831c0.256,1.363,0.343,2.746,0.598,4.111
		c0.461,2.471,0.696,4.979,1.227,7.443c0.221,1.028,0.48,2.15,0.283,3.142c-0.334,1.684-0.252,3.421-0.778,5.078
		c-0.271,0.855,0.018,1.564,0.777,1.845c1.086,0.402,1.645,1.39,2.531,2.002c0.422,0.291,0.822,0.604,1.287,0.826
		c0.352,0.168,0.745,0.192,1.079,0.081c0.795-0.265,1.58-0.574,2.336-0.936c0.7-0.336,0.742-1.046,0.136-1.566
		c-0.36-0.309-0.752-0.597-1.093-0.912c-1.098-1.016-2.148-2.075-2.449-3.661c-0.318-1.681-0.284-3.345,0.017-5.012
		c0.513-2.839,0.666-5.722,1.065-8.574c0.322-2.3,0.21-4.615,0.245-6.925c0.014-0.889-0.135-1.742-0.316-2.607
		c-0.239-1.138-0.753-2.237-0.577-3.441c0.095-0.65,0.24-1.288,0.233-1.956c-0.015-1.389-0.108-2.785,0.179-4.162
		c0.154-0.676,0.296-1.354,0.462-2.027c1.44-5.869,2.223-10.985,2.223-14.073c0-3.857-0.488-7.955-1.507-11.694
		c-0.582-2.137-1.213-4.083-1.888-5.581c-1.667-3.701-1.032-8.808-0.597-11.768c0.119-0.812,0.276-2.324,0.792-2.324
		c0.179,0,0.529,5.554,0.946,8.242c0.323,2.086,0.563,4.193,1.018,6.25c0.859,3.88,2.005,7.689,3.077,11.515
		c0.228,0.814,0.645,1.695,0.299,2.461c-0.791,1.75-0.04,3.477-0.144,5.205c-0.002,0.036-0.004,0.078,0.012,0.109
		c0.128,0.25,0.142,0.626,0.509,0.644c0.382,0.019,0.452-0.347,0.52-0.611c0.071-0.278,0.035-0.583,0.048-0.877
		c0.009-0.218-0.028-0.45,0.115-0.637c0.063-0.083,0.164-0.178,0.256-0.187c0.16-0.016,0.274,0.097,0.275,0.267
		c0.006,1.141,0.381,2.401-1.001,3.099c-0.123,0.062-0.206,0.202-0.312,0.302c-0.51,0.479-0.484,0.612,0.095,0.93
		c0.328,0.18,0.6,0.179,0.925-0.002c1.16-0.647,2.032-1.459,2.351-2.857C42.541,65.847,42.499,64.671,41.958,63.514z"/>
	<g>
		<path fill="#EF6A4C" stroke="#000000" stroke-width="0.2835" stroke-miterlimit="10" d="M24,49.407
			c-1.201,0-2.176-0.959-2.206-2.153c-1.442-0.029-2.859-0.088-4.254-0.172c-0.299,1.957-0.7,3.82-1.189,5.561
			c2.412,0.201,4.98,0.312,7.648,0.312V49.407z"/>
		<path fill="#EF6A4C" stroke="#000000" stroke-width="0.2835" stroke-miterlimit="10" d="M15.2,46.92
			c-0.057,0.122-0.116,0.241-0.178,0.357c-0.517,0.957-1.328,3.586-1.76,5.052c0.995,0.123,2.029,0.227,3.091,0.315
			c0.489-1.741,0.889-3.604,1.189-5.561C16.753,47.036,15.971,46.983,15.2,46.92z"/>
		<path fill="#EF6A4C" stroke="#000000" stroke-width="0.2835" stroke-miterlimit="10" d="M18.149,40.064
			c-0.058,2.436-0.268,4.788-0.609,7.019c1.395,0.083,2.812,0.143,4.254,0.172c0-0.019-0.003-0.037-0.003-0.055
			c0-1.22,0.989-2.209,2.209-2.209v-5.105C21.985,39.885,20.027,39.947,18.149,40.064z"/>
		<path fill="#EF6A4C" stroke="#000000" stroke-width="0.2835" stroke-miterlimit="10" d="M16.146,40.211
			c0.086,2.323-0.095,4.868-0.945,6.708c0.77,0.064,1.553,0.116,2.34,0.163c0.341-2.23,0.55-4.583,0.609-7.019
			C17.471,40.106,16.802,40.155,16.146,40.211z"/>
		<path fill="#EF6A4C" stroke="#000000" stroke-width="0.2835" stroke-miterlimit="10" d="M26.206,47.254
			c-0.03,1.194-1.005,2.153-2.206,2.153v3.548c2.668,0,5.236-0.111,7.648-0.312c-0.489-1.741-0.889-3.604-1.189-5.561
			C29.065,47.165,27.648,47.225,26.206,47.254z"/>
		<path fill="#EF6A4C" stroke="#000000" stroke-width="0.2835" stroke-miterlimit="10" d="M33.07,47.352
			c-0.065-0.144-0.126-0.291-0.184-0.44c-0.799,0.067-1.61,0.121-2.427,0.17c0.299,1.958,0.7,3.82,1.189,5.561
			c1.079-0.09,2.13-0.196,3.14-0.321C34.253,50.427,33.68,48.706,33.07,47.352z"/>
		<path fill="#EF6A4C" stroke="#000000" stroke-width="0.2835" stroke-miterlimit="10" d="M24,39.885v5.105
			c1.22,0,2.209,0.989,2.209,2.209c0,0.019-0.002,0.037-0.003,0.055c1.442-0.029,2.859-0.089,4.254-0.172
			c-0.341-2.23-0.55-4.582-0.609-7.018C27.973,39.947,26.015,39.885,24,39.885z"/>
		<path fill="#EF6A4C" stroke="#000000" stroke-width="0.2835" stroke-miterlimit="10" d="M32.004,40.224
			c-0.704-0.062-1.423-0.114-2.153-0.16c0.058,2.436,0.268,4.788,0.609,7.018c0.817-0.049,1.628-0.103,2.427-0.17
			C32.084,44.865,31.92,42.452,32.004,40.224z"/>
	</g>
	<g>
		<g>
			<path fill="#EF6A4C" stroke="#000000" stroke-width="0.2835" stroke-miterlimit="10" d="M15.062,78.416
				c0.207,0.31,1.338,0.342,1.863,0.34c2.298-0.007,3.185-0.483,3.206-1.896c0.019-1.294,0.159-2.904,0.311-4.468
				c-2.323-0.042-4.624-0.116-6.9-0.22C14.004,74.992,14.668,77.827,15.062,78.416z"/>
			<path fill="#EF6A4C" stroke="#000000" stroke-width="0.2835" stroke-miterlimit="10" d="M17.971,65.481
				c-1.386-0.1-3.983-0.288-4.726,0.521c-0.434,0.473-0.172,3.314,0.296,6.171c2.276,0.105,4.577,0.179,6.9,0.22
				c0.172-1.775,0.36-3.491,0.404-4.618C20.909,66.147,20.333,65.651,17.971,65.481z"/>
		</g>
		<g>
			<path fill="#EF6A4C" stroke="#000000" stroke-width="0.2835" stroke-miterlimit="10" d="M27.869,76.861
				c0.021,1.412,0.907,1.888,3.206,1.896c0.525,0.002,1.655-0.031,1.863-0.34c0.395-0.59,1.058-3.424,1.521-6.244
				c-2.276,0.105-4.577,0.179-6.9,0.22C27.71,73.957,27.85,75.567,27.869,76.861z"/>
			<path fill="#EF6A4C" stroke="#000000" stroke-width="0.2835" stroke-miterlimit="10" d="M34.755,66.002
				c-0.742-0.81-3.339-0.621-4.726-0.521c-2.362,0.17-2.938,0.666-2.875,2.294c0.044,1.127,0.231,2.843,0.404,4.618
				c2.323-0.042,4.624-0.116,6.9-0.22C34.927,69.316,35.189,66.475,34.755,66.002z"/>
		</g>
	</g>
	<g>
		<path fill="#EF6A4C" stroke="#000000" stroke-width="0.2835" stroke-miterlimit="10" d="M11.368,35.504
			c0-2.724,0.054-5.132-0.038-7.813c-0.035-1.02-0.188-1.302-1.556-1.371c-0.232,3.254-0.124,6.516-0.22,9.774
			c0.006,0.352,0.006,0.703-0.001,1.054C11.012,37.071,11.368,36.691,11.368,35.504z"/>
		<path fill="#EF6A4C" stroke="#000000" stroke-width="0.2835" stroke-miterlimit="10" d="M36.67,27.691
			c-0.092,2.681-0.038,5.089-0.038,7.813c0,1.236,0.385,1.598,2,1.652c-0.042-1.328-0.164-3.444-0.164-3.895
			c-0.141-0.98-0.144-1.969-0.104-2.952c0.054-1.336,0.047-2.666-0.086-3.991C36.86,26.382,36.706,26.658,36.67,27.691z"/>
	</g>
</g>
<g id="Woman_Back_1_">
	<path fill="#EDC3AD" stroke="#000000" stroke-width="0.5669" stroke-miterlimit="10" d="M42.13,64.399
		c-0.959-2.587-1.369-5.263-1.454-8.015c-0.104-3.403-0.421-6.795-0.485-10.204c-0.025-1.354-0.389-2.731-0.89-4.042
		c-0.742-1.941-0.889-3.984-0.855-6.043c-0.097-3.294,0.016-6.593-0.227-9.884c-0.136-1.842-1.362-4.914-4.076-5.624
		c-1.69-0.442-3.426-0.772-5-1.59c-0.163-0.085-0.325-0.17-0.489-0.253c-0.4-0.204-0.906-0.477-0.875-0.894
		c0.032-0.421,0.653-0.335,1.004-0.436c2.605-0.755,4.41-3.432,3.861-6.287c-0.444-2.312-1.038-4.538-2.098-6.643
		c-0.614-1.22-1.583-2.084-2.659-2.861c-0.059-0.042-0.129-0.1-0.193-0.098c-2.101,0.052-4.149-1.001-6.286-0.274
		c-2.2,0.749-3.698,2.074-4.15,4.479c-0.363,1.926-0.469,3.854-0.386,5.795c0.063,1.48-0.427,2.601-1.829,3.174
		c-0.627,0.256-0.278,0.469-0.047,0.683c1.179,1.096,2.595,1.756,4.128,2.189c0.14,0.039,0.3,0.018,0.432,0.07
		c0.197,0.078,0.466,0.116,0.521,0.352c0.071,0.306-0.208,0.465-0.409,0.592c-0.339,0.214-0.711,0.384-1.083,0.537
		c-1.727,0.709-3.539,1.141-5.339,1.608c-1.762,0.457-2.61,1.563-3.111,3.287c-0.08,0.274-0.199,0.839-0.267,1.159
		c-0.273,1.703-0.302,3.414-0.232,5.135c0.04,0.984,0.037,1.972-0.104,2.952c0,0.604-0.218,4.189-0.172,4.877
		c0.089,1.352-0.299,2.582-0.699,3.844c-0.46,1.453-0.796,2.941-0.887,4.487c-0.129,2.196-0.128,4.397-0.252,6.589
		c-0.116,2.04-0.141,4.1-0.437,6.118c-0.214,1.46-0.399,2.962-1.043,4.34c-0.541,1.156-0.583,2.332-0.294,3.599
		c0.32,1.398,1.192,2.21,2.351,2.857c0.325,0.181,0.597,0.182,0.925,0.002c0.579-0.318,0.606-0.451,0.095-0.93
		c-0.106-0.099-0.189-0.239-0.312-0.302c-1.382-0.698-1.008-1.958-1.001-3.099c0.001-0.17,0.114-0.282,0.275-0.267
		c0.092,0.009,0.193,0.104,0.256,0.187c0.143,0.188,0.105,0.419,0.115,0.637c0.013,0.293-0.023,0.599,0.048,0.877
		c0.067,0.264,0.138,0.63,0.52,0.611c0.367-0.018,0.381-0.395,0.509-0.644c0.016-0.03,0.014-0.073,0.012-0.109
		c-0.104-1.728,0.647-3.455-0.144-5.205c-0.346-0.766,0.071-1.647,0.299-2.461c1.072-3.826,2.218-7.636,3.077-11.515
		c0.456-2.057,0.695-4.164,1.018-6.25c0.417-2.688,0.766-8.242,0.946-8.242c0.515,0,0.672,1.512,0.792,2.324
		c0.435,2.96,1.07,8.067-0.597,11.768c-0.675,1.498-1.305,3.445-1.888,5.581c-1.019,3.739-1.507,7.836-1.507,11.694
		c0,3.088,0.782,8.205,2.223,14.073c0.165,0.673,0.308,1.351,0.462,2.027c0.287,1.377,0.194,2.773,0.179,4.162
		c-0.007,0.669,0.138,1.306,0.233,1.956c0.176,1.204-0.339,2.304-0.577,3.441c-0.181,0.865-0.33,1.718-0.316,2.607
		c0.035,2.31-0.077,4.625,0.245,6.925c0.399,2.853,0.553,5.735,1.065,8.574c0.139,0.77,0.218,1.54,0.235,2.311h0
		c0,0.645,0.039,1.293,0.016,1.943c-0.025,0.681-0.218,1.309-0.772,1.619c-1.037,0.582-1.942,1.417-3.183,1.645
		c-0.443,0.082-1.154,0.193-1.095,0.852c0.061,0.677,0.813,0.576,1.231,0.595c2.087,0.093,4.166,0.389,6.263,0.281
		c1.078-0.055,1.466-0.464,1.523-1.565c0.04-0.781-0.276-1.505-0.242-2.29c0.045-1.028-0.067-2.794-0.12-3.081
		c-0.004-0.019-0.007-0.038-0.01-0.057c-0.197-0.992,0.061-2.114,0.283-3.142c0.531-2.464,0.766-4.972,1.227-7.443
		c0.255-1.365,0.342-2.749,0.598-4.111c0.18-0.958-0.087-1.911-0.257-2.831c-0.255-1.382-0.138-2.677,0.265-3.998
		c0.534-1.75,0.97-3.521,0.922-5.379c-0.013-0.486-0.116-0.94-0.218-1.403c-0.377-1.715,0.028-3.4,0.152-5.103
		c0.151-2.08,0.557-4.122,0.761-6.194c0.222-2.253,0.464-4.503,0.607-6.762c0.042-0.658,0.495-0.494,0.873-0.524
		c0.431-0.034,0.686,0.08,0.686,0.596c0,2.774,0.545,6.074,0.764,8.507c0.145,1.603,0.785,6.152,0.803,6.854
		c0.026,1.033-0.114,2.042-0.233,3.061c-0.283,2.42,0.327,4.722,0.971,7.02c0.296,1.058,0.438,2.108,0.145,3.234
		c-0.438,1.684-0.331,3.405-0.026,5.119c0.325,1.829,0.591,3.668,0.885,5.503c0.358,2.231,0.755,4.456,1.059,6.694
		c0.016,0.12,0.02,0.24,0.015,0.359c-0.006,0.055-0.011,0.11-0.018,0.165c-0.246,1.799-0.266,3.591-0.316,5.386
		c-0.032,1.139,0.217,1.327,1.345,1.386c2.06,0.107,4.101-0.206,6.153-0.253c0.285-0.006,0.565-0.148,0.853-0.191
		c0.291-0.043,0.483-0.138,0.48-0.473c-0.003-0.294-0.135-0.492-0.398-0.598c-0.204-0.082-0.412-0.159-0.626-0.209
		c-1.168-0.272-2.116-0.971-3.075-1.626c-0.409-0.279-0.686-0.684-0.815-1.247c-0.182-0.794-0.134-1.656-0.123-2.339
		c0.004-0.102,0.01-0.204,0.018-0.306c0.123-1.497,0.39-2.974,0.59-4.45c0.298-2.205,0.526-4.423,0.739-6.629
		c0.308-3.192,0.68-6.426-0.195-9.613c-0.193-0.702-0.326-1.421-0.508-2.126c-0.066-0.257-0.102-0.505-0.02-0.757
		c0.636-1.939,0.298-3.932,0.328-5.904c0.653-1.787,0.917-3.67,1.327-5.514c0.883-3.979,1.475-9.335,1.331-13.876
		c-0.087-2.764-0.478-5.52-1.219-8.202c-0.1-0.361-1.346-4.749-2.048-6.048c-1.943-3.598-0.922-10.472-0.465-12.43
		c0.058-0.249,0.088-0.476,0.183-0.723c0.083-0.215,0.291-0.742,0.5-0.715c0.136,0.017,0.191,0.631,0.211,0.85
		c0.201,2.216,0.591,4.411,0.689,6.641c0.12,2.739,0.554,5.449,1.356,8.065c1.07,3.489,1.926,7.033,2.915,10.542
		c0.295,1.045,0.395,2.054-0.094,3.074c-0.314,0.654-0.328,1.341-0.038,2.026c0.233,0.551,0.267,1.134,0.245,1.726
		c-0.012,0.328,0.002,0.663,0.059,0.985c0.04,0.229,0.229,0.376,0.48,0.375c0.3-0.002,0.336-0.226,0.353-0.456
		c0.037-0.509-0.041-1.029,0.186-1.519c0.076-0.163,0.081-0.387,0.326-0.352c0.198,0.028,0.289,0.208,0.341,0.389
		c0.325,1.12-0.104,2.262-1.08,2.992c-0.326,0.244-0.934,0.506-0.559,0.992c0.277,0.359,0.818,0.51,1.386,0.224
		C42.028,68.931,42.953,66.618,42.13,64.399z"/>
	<g>
		<g>
			<path fill="#EF6A4C" stroke="#000000" stroke-width="0.2835" stroke-miterlimit="10" d="M14.795,77.708
				c-0.015-1.737-0.289-3.474-0.289-5.211c-0.678,0.036-1.37,0.056-2.069,0.067c0.346,1.9,0.788,3.966,1.321,6.136
				c0.005,0.021,0.009,0.042,0.015,0.062C14.218,78.594,14.8,78.314,14.795,77.708z"/>
			<path fill="#EF6A4C" stroke="#000000" stroke-width="0.2835" stroke-miterlimit="10" d="M14.522,67.359
				c0.004-0.609-0.331-0.838-0.959-0.954c-0.653-0.12-1.309-0.148-1.968-0.152c0.116,1.744,0.399,3.889,0.841,6.31
				c0.699-0.011,1.391-0.031,2.069-0.067C14.505,70.784,14.511,69.072,14.522,67.359z"/>
		</g>
		<g>
			<path fill="#EF6A4C" stroke="#000000" stroke-width="0.2835" stroke-miterlimit="10" d="M33.084,77.708
				c-0.051,0.679,0.579,0.95,1.113,1.112c0.267-1.133,0.464-2.282,0.716-3.417c0.196-0.885,0.377-1.841,0.54-2.838
				c-0.731-0.01-1.454-0.031-2.162-0.069C33.292,74.234,33.206,76.078,33.084,77.708z"/>
			<path fill="#EF6A4C" stroke="#000000" stroke-width="0.2835" stroke-miterlimit="10" d="M33.275,67.359
				c0.011,1.712,0.017,3.425,0.017,5.137c0.708,0.038,1.431,0.058,2.162,0.069c0.325-1.993,0.573-4.159,0.705-6.312
				c-0.644,0.006-1.286,0.034-1.925,0.152C33.607,66.521,33.271,66.75,33.275,67.359z"/>
		</g>
	</g>
	<g>
		<path fill="#EF6A4C" stroke="#000000" stroke-width="0.2835" stroke-miterlimit="10" d="M12.842,57.285
			c0.129-1.13,0.567-3.081,1.318-4.021c1.152-1.441,1.591-1.672,5.308-1.04c3.716,0.633,3.465,3.887,2.844,7.627
			c-0.469,2.826-6.135,3.293-8.548,1.317C12.796,60.376,12.695,58.651,12.842,57.285z"/>
		<path fill="#EF6A4C" stroke="#000000" stroke-width="0.2835" stroke-miterlimit="10" d="M35.158,57.285
			c-0.129-1.13-0.567-3.081-1.318-4.021c-1.152-1.441-1.591-1.672-5.308-1.04c-3.716,0.633-3.465,3.887-2.844,7.627
			c0.469,2.826,6.135,3.293,8.548,1.317C35.204,60.376,35.305,58.651,35.158,57.285z"/>
	</g>
	<g>
		<g>
			<path fill="#EE694C" stroke="#000000" stroke-width="0.2835" stroke-miterlimit="10" d="M13.627,34.526
				c-0.087,1.846-0.497,2.63-0.975,2.615c-0.563-0.017-1.055-0.117-1.554-0.16c-0.727-0.063-1.246-0.364-1.09-2.108
				c0.26-2.92,0.131-6.123,0.251-7.295c0.103-1.014,0.361-1.259,1.117-1.259c0.582,0,0.844,0.043,1.741,0.043
				c0.776,0,1.113,1.052,0.989,2.265C13.975,29.901,13.722,32.5,13.627,34.526z"/>
		</g>
		<g>
			<path fill="#EE694C" stroke="#000000" stroke-width="0.2835" stroke-miterlimit="10" d="M34.373,34.526
				c0.087,1.846,0.497,2.63,0.975,2.615c0.563-0.017,1.055-0.117,1.554-0.16c0.727-0.063,1.246-0.364,1.09-2.108
				c-0.26-2.92-0.131-6.123-0.251-7.295c-0.103-1.014-0.361-1.259-1.117-1.259c-0.582,0-0.844,0.043-1.741,0.043
				c-0.776,0-1.113,1.052-0.989,2.265C34.025,29.901,34.278,32.5,34.373,34.526z"/>
		</g>
	</g>
</g>
<g id="Child">
	<path fill="#EFC3AD" stroke="#000000" stroke-width="0.5669" stroke-miterlimit="10" d="M36.835,45.666
		c-0.124-1.269-0.479-2.526-0.155-3.815c0.029-0.116-0.005-0.252-0.029-0.375c-0.164-0.842-0.192-1.699-0.233-2.549
		c-0.06-1.263-0.032-1.888-0.017-3.154c0.009-0.737-0.282-2.557-0.402-3.284c-0.357-2.162-0.58-4.198-0.8-5.722
		c-0.179-2.55-0.314-3.809-0.625-4.826c-0.332-1.085-0.634-1.867-1.606-2.391c-0.76-0.41-1.618-0.751-2.427-1.015
		c-1.073-0.35-2.232-0.853-3.184-1.459c-1.915-1.219-1.719-2.374-0.772-3.32c1.538-1.538,2.113-3.64,2.113-4.654
		c0.551-0.108,0.798-2.799,0.255-2.683c-0.071-0.898-0.576-3.586-2.431-4.761c-1.402-0.888-3.263-0.892-4.976,0.016
		C18.96,3.044,19.11,5.62,18.989,6.419c-0.541-0.047-0.431,2.375,0.085,2.684c0.234,0.992,0.792,3.275,2.179,4.662
		c0.878,0.878,0.778,2.1-0.603,3.017c-1.249,0.83-3.451,1.661-4.928,2.228c-1.527,0.586-2.162,2.021-2.518,2.916
		c-0.252,0.634-0.334,1.291-0.397,1.985c-0.069,0.757-0.158,1.575-0.158,2.331c0,0.927-0.074,1.443-0.093,1.669
		c-0.156,1.9-0.307,3.168-0.67,4.87c-0.104,0.489-0.267,1.824-0.286,2.319c-0.074,1.893,0.022,2.944-0.143,4.839
		c-0.097,1.121-0.022,2.257-0.028,3.387c-0.002,0.302-0.053,0.599-0.09,0.897c-0.1,0.813-0.321,1.615-0.058,2.463
		c0.431,1.391,1.242,2.406,2.584,2.985c0.246,0.106,0.507,0.168,0.673-0.109c0.144-0.241-0.113-0.353-0.229-0.499
		c-0.094-0.118-0.2-0.236-0.324-0.32c-0.894-0.607-0.757-1.524-0.727-2.404c0.007-0.212,0.148-0.43,0.354-0.44
		c0.277-0.013,0.25,0.255,0.258,0.451c0.007,0.152-0.023,0.31,0.01,0.455c0.098,0.433,0.072,0.915,0.468,1.237
		c0.12,0.098,0.235,0.206,0.401,0.164c0.197-0.05,0.176-0.222,0.176-0.37c-0.002-0.887-0.004-1.773-0.014-2.66
		c-0.001-0.122-0.02-0.254-0.07-0.364c-0.237-0.521-0.492-1.034-0.733-1.554c-0.321-0.694-0.357-1.433-0.166-2.148
		c0.598-2.232,1.259-4.448,1.666-6.726c0.247-1.383,0.533-2.767,0.529-4.181c-0.002-0.634,0.147-1.115,0.198-1.848
		c0.006-0.08,0.013-0.244,0.095-0.325c0.107,0.04,0.148,0.226,0.162,0.337c0.076,0.572,0.339,2.844,0.37,3.702
		c-0.011,0.732-0.034,1.931-0.093,2.659c-0.157,1.943-0.405,3.953-0.526,5.844c-0.116,1.817-0.224,3.243-0.224,4.692
		c0,2.79-0.049,8.132,0.899,12.62c0.219,1.037,0.351,2.079,0.301,3.146c-0.04,0.86-0.005,1.722-0.008,2.584
		c-0.001,0.329-0.001,0.663-0.035,0.985c-0.174,1.652-0.329,2.884-0.329,4.614c0,0.903-0.01,1.826,0.099,2.709
		c0.295,2.389,0.641,4.775,1.138,7.136c0.165,0.783,0.141,1.591-0.53,2.258c-0.25,0.248-0.49,0.582-0.64,0.925
		c-0.184,0.42-0.471,0.727-0.872,0.906c-0.615,0.274-1.027,0.81-1.581,1.159c-0.174,0.109-0.277,0.268-0.301,0.497
		c-0.075,0.72,0.257,1.256,0.94,1.453c0.168,0.049,0.351,0.057,0.511,0.123c0.972,0.402,1.415,0.324,2.166-0.401
		c0.236-0.227,0.442-0.487,0.76-0.618c0.264-0.109,0.409-0.3,0.542-0.578c0.251-0.525,0.654-0.922,1.282-1.06
		c0.818-0.18,0.986-0.408,0.947-1.276c-0.034-0.753-0.197-1.503-0.259-2.265c-0.004-0.048-0.016-0.1-0.03-0.147
		c-0.342-1.234-0.243-2.357-0.119-3.51c0.195-1.815,0.557-3.421,0.754-5.251c0.134-1.242,0.032-2.625,0.036-3.85
		c0.005-1.349,0.053-2.264,0.355-3.632c0.372-1.685,0.591-3.004,0.762-4.734c0.164-1.666,0.182-3.326,0.342-4.971
		c0.177-1.822,0.105-1.067,0.32-2.886c0.022-0.183,0.086-0.343,0.162-0.5c0.066-0.137,0.156-0.279,0.339-0.242
		c0.132,0.027,0.21,0.143,0.238,0.269c0.064,0.294,0.12,0.591,0.17,0.888c0.235,1.384,0.058,0.293,0.255,1.683
		c0.222,1.566,0.554,3.122,0.531,4.717c-0.011,0.76,0.208,1.616,0.273,2.372c0.101,1.174,0.245,1.904,0.449,3.053
		c0.2,1.125,0.201,2.038,0.201,3.453c0,1.491-0.213,2.909-0.084,4.354c0.156,1.747,0.628,3.453,0.967,5.175
		c0.199,1.011,0.213,2.082-0.015,3.092c-0.241,1.065-0.285,2.139-0.365,3.212c-0.049,0.651,0.18,0.93,0.828,1.055
		c0.458,0.088,0.882,0.267,1.062,0.648c0.392,0.829,1.219,1.167,1.813,1.761c0.649,0.648,1.187,0.65,2.027,0.161
		c0.16-0.093,0.301,0.006,0.417-0.026c0.398-0.109,0.824-0.228,0.969-0.696c0.157-0.509,0.021-1.044-0.326-1.308
		c-0.42-0.32-0.819-0.68-1.276-0.937c-0.69-0.389-1.158-0.957-1.527-1.627c-0.1-0.182-0.219-0.342-0.368-0.478
		c-0.344-0.315-0.444-0.705-0.451-1.16c-0.019-1.271,0.356-2.483,0.515-3.726c0.121-0.946,0.335-1.875,0.424-2.827
		c0.101-1.075,0.273-2.143,0.356-3.222c0.098-1.285,0.187-2.562-0.036-3.842c-0.207-1.191-0.411-2.379-0.348-3.603
		c0.085-1.657-0.158-3.332,0.299-4.967c0.673-3.915,0.631-7.269,0.776-11.712c0.077-2.367-0.186-4.448-0.309-5.405
		c-0.381-2.955-0.526-5.486-0.526-8.078c0-1.206,0.149-4.936,0.293-4.936c0.129,0,0.604,3.347,0.81,5.019
		c0.176,1.423,0.406,2.831,0.797,4.21c0.349,1.232,0.732,2.455,1.096,3.683c0.113,0.383,0.324,0.772,0.219,1.169
		c-0.185,0.698-0.264,1.438-0.731,2.044c-0.132,0.172-0.234,0.409-0.25,0.623c-0.083,1.105-0.134,2.212-0.194,3.319
		c-0.01,0.187,0.027,0.377,0.215,0.447c0.214,0.08,0.302-0.103,0.403-0.253c0.17-0.254,0.311-0.499,0.311-0.83
		c0-0.322,0.086-0.646,0.146-0.966c0.024-0.127,0.099-0.242,0.234-0.27c0.16-0.034,0.199,0.116,0.269,0.215
		c0.366,0.521,0.087,1.073,0.046,1.602c-0.028,0.368-0.203,0.723-0.602,0.903c-0.264,0.119-0.412,0.366-0.511,0.635
		c-0.063,0.171-0.105,0.362,0.054,0.49c0.136,0.109,0.282-0.003,0.423-0.059c1.278-0.5,2.149-1.375,2.515-2.717
		C36.676,46.603,36.883,46.154,36.835,45.666z"/>
	<g>
		<g>
			<path fill="#EF6A4C" stroke="#000000" stroke-width="0.2835" stroke-miterlimit="10" d="M17.357,55.586
				c0.269,1.641,0.655,3.29,0.885,3.633c0.121,0.18,0.779,0.199,1.084,0.198c1.337-0.004,1.853-0.281,1.865-1.103
				c0.011-0.753,0.093-1.69,0.181-2.6C20.021,55.69,18.682,55.647,17.357,55.586z"/>
			<path fill="#EF6A4C" stroke="#000000" stroke-width="0.2835" stroke-miterlimit="10" d="M19.935,51.691
				c-0.807-0.058-2.318-0.168-2.75,0.303c-0.253,0.275-0.1,1.929,0.173,3.591c1.325,0.061,2.663,0.104,4.015,0.128
				c0.1-1.033,0.209-2.031,0.235-2.687C21.644,52.079,21.309,51.791,19.935,51.691z"/>
		</g>
		<g>
			<path fill="#EF6A4C" stroke="#000000" stroke-width="0.2835" stroke-miterlimit="10" d="M26.808,58.314
				c0.012,0.822,0.528,1.099,1.865,1.103c0.305,0.001,0.963-0.018,1.084-0.198c0.23-0.343,0.616-1.993,0.885-3.633
				c-1.325,0.061-2.663,0.104-4.015,0.128C26.716,56.624,26.797,57.561,26.808,58.314z"/>
			<path fill="#EF6A4C" stroke="#000000" stroke-width="0.2835" stroke-miterlimit="10" d="M28.065,51.691
				c-1.374,0.099-1.709,0.388-1.673,1.335c0.025,0.656,0.135,1.655,0.235,2.687c1.352-0.024,2.691-0.067,4.015-0.128
				c0.273-1.662,0.425-3.315,0.173-3.591C30.383,51.524,28.872,51.633,28.065,51.691z"/>
		</g>
	</g>
	<g>
		<path fill="#EE694C" stroke="#000000" stroke-width="0.2835" stroke-miterlimit="10" d="M24,38.458V35.54
			c-1.815,0-3.585,0.029-5.299,0.081c-0.021,2.855-0.177,5.587-0.444,8.117c1.851,0.062,3.771,0.095,5.743,0.095v-2.177
			c-0.883,0-1.599-0.716-1.599-1.599C22.401,39.174,23.117,38.458,24,38.458z"/>
		<path fill="#EE694C" stroke="#000000" stroke-width="0.2835" stroke-miterlimit="10" d="M16.785,35.691
			c-0.151,1.639-0.339,3.301-0.44,4.883c-0.073,1.148-0.143,2.14-0.185,3.081c0.687,0.032,1.388,0.06,2.097,0.084
			c0.267-2.53,0.423-5.262,0.444-8.117C18.054,35.641,17.414,35.664,16.785,35.691z"/>
		<path fill="#EE694C" stroke="#000000" stroke-width="0.2835" stroke-miterlimit="10" d="M24,35.54v2.918
			c0.883,0,1.599,0.716,1.599,1.599c0,0.883-0.716,1.599-1.599,1.599v2.177c1.972,0,3.892-0.033,5.743-0.095
			c-0.267-2.53-0.423-5.262-0.444-8.117C27.586,35.568,25.814,35.54,24,35.54z"/>
		<path fill="#EE694C" stroke="#000000" stroke-width="0.2835" stroke-miterlimit="10" d="M31.534,40.813
			c-0.237-1.834-0.382-3.505-0.458-5.128c-0.584-0.024-1.178-0.046-1.777-0.064c0.021,2.855,0.177,5.587,0.444,8.117
			c0.699-0.023,1.388-0.051,2.065-0.082C31.738,42.414,31.61,41.401,31.534,40.813z"/>
	</g>
</g>
<g id="Child_Back_1_">
	<path id="Child_Back" fill="#EFC3AD" stroke="#000000" stroke-width="0.5669" stroke-miterlimit="10" d="M36.66,44.223
		c-0.037-0.298-0.088-0.595-0.09-0.897c-0.006-1.129,0.069-2.266-0.028-3.387c-0.164-1.895-0.068-2.946-0.143-4.839
		c-0.019-0.495-0.182-1.83-0.286-2.319c-0.363-1.702-0.514-2.971-0.67-4.87c-0.019-0.226-0.093-0.742-0.093-1.669
		c0-0.755-0.089-1.574-0.158-2.331c-0.063-0.695-0.145-1.352-0.397-1.985c-0.356-0.895-0.991-2.33-2.518-2.916
		c-1.476-0.567-3.678-1.398-4.928-2.228c-1.381-0.917-1.481-2.139-0.603-3.017c1.387-1.387,1.945-3.67,2.179-4.662
		c0.516-0.308,0.626-2.731,0.085-2.684c-0.12-0.798,0.029-3.375-2.558-4.745c-1.712-0.907-3.574-0.904-4.976-0.016
		c-1.855,1.175-2.361,3.863-2.431,4.761c-0.543-0.115-0.295,2.576,0.255,2.683c0,1.014,0.576,3.116,2.113,4.654
		c0.947,0.947,1.143,2.101-0.772,3.32c-0.952,0.606-2.111,1.109-3.184,1.459c-0.809,0.264-1.667,0.604-2.427,1.015
		c-0.971,0.524-1.274,1.306-1.606,2.391c-0.311,1.016-0.447,2.276-0.625,4.826c-0.22,1.525-0.443,3.56-0.8,5.722
		c-0.12,0.727-0.41,2.547-0.402,3.284c0.015,1.266,0.043,1.891-0.017,3.154c-0.04,0.85-0.068,1.707-0.233,2.549
		c-0.024,0.123-0.058,0.259-0.029,0.375c0.325,1.289-0.031,2.546-0.155,3.815c-0.048,0.488,0.158,0.937,0.284,1.396
		c0.367,1.342,1.237,2.217,2.515,2.717c0.141,0.055,0.287,0.168,0.423,0.059c0.159-0.128,0.116-0.319,0.054-0.49
		c-0.098-0.269-0.246-0.515-0.511-0.635c-0.399-0.18-0.574-0.535-0.602-0.903c-0.041-0.529-0.319-1.081,0.046-1.602
		c0.07-0.099,0.108-0.249,0.269-0.215c0.134,0.028,0.21,0.144,0.234,0.27c0.06,0.321,0.146,0.644,0.146,0.966
		c0,0.331,0.141,0.577,0.311,0.83c0.101,0.15,0.189,0.333,0.403,0.253c0.188-0.071,0.226-0.26,0.215-0.447
		c-0.06-1.107-0.112-2.214-0.194-3.319c-0.016-0.214-0.117-0.451-0.25-0.623c-0.466-0.606-0.546-1.346-0.731-2.044
		c-0.105-0.397,0.106-0.786,0.219-1.169c0.364-1.228,0.747-2.451,1.096-3.683c0.391-1.379,0.621-2.787,0.797-4.21
		c0.206-1.672,0.681-5.019,0.81-5.019c0.144,0,0.293,3.729,0.293,4.936c0,2.592-0.144,5.124-0.526,8.078
		c-0.124,0.957-0.387,3.038-0.309,5.405c0.145,4.443,0.103,7.797,0.776,11.712c0.457,1.635,0.214,3.31,0.299,4.967
		c0.063,1.224-0.141,2.412-0.348,3.603c-0.222,1.281-0.134,2.557-0.036,3.842c0.082,1.08,0.254,2.147,0.356,3.222
		c0.09,0.952,0.303,1.881,0.424,2.827c0.125,0.977,0.381,1.936,0.477,2.918c0.019,0.552-0.353,1.273-0.976,1.704
		c-0.794,0.549-1.608,1.059-2.551,1.321c-0.22,0.061-0.447,0.122-0.644,0.23c-0.175,0.096-0.34,0.248-0.307,0.489
		c0.034,0.245,0.224,0.292,0.434,0.356c0.524,0.159,1.064,0.094,1.591,0.16c1.364,0.171,2.734,0.234,4.104,0.276
		c0.926,0.029,1.32-0.431,1.38-1.348c0.046-0.698-0.215-1.362-0.188-2.051c0.015-0.379,0.01-0.795-0.041-1.137
		c-0.183-0.949-0.161-1.944,0.025-2.887c0.339-1.722,0.811-3.427,0.967-5.175c0.129-1.444-0.084-2.863-0.084-4.354
		c0-1.415,0.001-2.327,0.201-3.453c0.204-1.149,0.347-1.879,0.449-3.053c0.065-0.756,0.285-1.613,0.273-2.372
		c-0.024-1.595,0.308-3.151,0.531-4.717c0.197-1.39,0.02-0.299,0.255-1.683c0.05-0.297,0.106-0.594,0.17-0.888
		c0.028-0.126,0.106-0.243,0.238-0.269c0.183-0.037,0.273,0.105,0.339,0.242c0.076,0.158,0.14,0.317,0.162,0.5
		c0.215,1.819,0.143,1.065,0.32,2.886c0.16,1.646,0.177,3.305,0.342,4.971c0.171,1.731,0.39,3.05,0.762,4.734
		c0.302,1.367,0.351,2.283,0.355,3.632c0.004,1.224-0.098,2.608,0.036,3.85c0.197,1.83,0.559,3.435,0.754,5.251
		c0.099,0.923,0.111,1.827,0.032,2.784c-0.088,0.989-0.217,1.975-0.3,3.087c-0.009,0.126-0.018,0.258,0.004,0.383
		c0.08,0.453,0.342,0.806,0.832,0.961c0.381,0.12,0.773,0.184,1.129,0.091c0.635-0.167,1.268-0.092,1.902-0.125
		c1.065-0.055,2.127-0.143,3.183-0.298c0.245-0.036,0.487-0.073,0.501-0.36c0.013-0.263-0.088-0.519-0.4-0.562
		c-0.867-0.12-1.539-0.659-2.267-1.063c-0.763-0.424-1.794-0.91-1.856-1.906c-0.004-0.063,0.012-0.148,0.01-0.207
		c0.013-0.084,0.028-0.167,0.045-0.251c0.497-2.361,0.842-4.747,1.138-7.136c0.109-0.884,0.099-1.806,0.099-2.709
		c0-1.73-0.155-2.962-0.329-4.614c-0.034-0.323-0.033-0.656-0.035-0.985c-0.003-0.861,0.032-1.724-0.008-2.584
		c-0.05-1.067,0.081-2.109,0.301-3.146c0.948-4.488,0.899-9.829,0.899-12.62c0-1.45-0.108-2.876-0.224-4.692
		c-0.121-1.892-0.369-3.901-0.526-5.844c-0.059-0.728-0.082-1.927-0.093-2.659c0.031-0.859,0.294-3.13,0.37-3.702
		c0.015-0.111,0.055-0.297,0.162-0.337c0.082,0.082,0.089,0.246,0.095,0.325c0.051,0.732,0.199,1.214,0.198,1.848
		c-0.004,1.415,0.282,2.798,0.529,4.181c0.406,2.277,1.067,4.494,1.666,6.726c0.192,0.715,0.156,1.454-0.166,2.148
		c-0.241,0.52-0.496,1.033-0.733,1.554c-0.05,0.11-0.069,0.242-0.07,0.364c-0.01,0.887-0.012,1.773-0.014,2.66
		c0,0.148-0.021,0.32,0.176,0.37c0.167,0.042,0.282-0.066,0.401-0.164c0.396-0.323,0.37-0.805,0.468-1.237
		c0.033-0.145,0.003-0.303,0.01-0.455c0.009-0.197-0.018-0.464,0.258-0.451c0.206,0.01,0.347,0.227,0.354,0.44
		c0.029,0.88,0.167,1.798-0.727,2.404c-0.124,0.084-0.23,0.202-0.324,0.32c-0.116,0.146-0.373,0.258-0.229,0.499
		c0.166,0.277,0.427,0.215,0.673,0.109c1.342-0.578,2.153-1.594,2.584-2.985C36.981,45.838,36.759,45.037,36.66,44.223z"/>
	<g>
		<g>
			<path fill="#EE694C" stroke="#000000" stroke-width="0.2835" stroke-miterlimit="10" d="M15.544,30.688
				c-0.175,1.144-0.537,1.603-0.905,1.559c-0.433-0.051-0.808-0.149-1.191-0.212c-0.557-0.092-0.941-0.317-0.719-1.392
				c0.371-1.801,0.458-3.806,0.619-4.527c0.139-0.624,0.352-0.758,0.936-0.704c0.449,0.042,0.649,0.088,1.342,0.152
				c0.599,0.056,0.798,0.736,0.631,1.483C16.082,27.831,15.736,29.432,15.544,30.688z"/>
		</g>
		<g>
			<path fill="#EE694C" stroke="#000000" stroke-width="0.2835" stroke-miterlimit="10" d="M32.553,30.647
				c0.132,1.149,0.476,1.622,0.846,1.592c0.435-0.035,0.813-0.118,1.198-0.167c0.56-0.071,0.952-0.281,0.771-1.364
				c-0.303-1.813-0.315-3.82-0.448-4.547c-0.115-0.629-0.323-0.771-0.909-0.738c-0.451,0.025-0.652,0.063-1.347,0.102
				c-0.601,0.033-0.825,0.705-0.687,1.458C32.122,27.772,32.408,29.385,32.553,30.647z"/>
		</g>
	</g>
	<g>
		<path fill="#EF6A4C" stroke="#000000" stroke-width="0.2835" stroke-miterlimit="10" d="M16.87,44.209
			c0-0.697,0.207-2.048,0.621-2.664c0.621-0.923,1.31-1.159,3.603-0.834c2.303,0.327,2.3,2.656,1.917,4.963
			c-0.29,1.744-3.858,1.96-5.346,0.74C17.068,45.925,16.78,45.051,16.87,44.209z"/>
		<path fill="#EF6A4C" stroke="#000000" stroke-width="0.2835" stroke-miterlimit="10" d="M31.13,44.209
			c0-0.697-0.207-2.048-0.621-2.664c-0.621-0.923-1.31-1.159-3.603-0.834c-2.303,0.327-2.3,2.656-1.917,4.963
			c0.29,1.744,3.858,1.96,5.346,0.74C30.932,45.925,31.22,45.051,31.13,44.209z"/>
	</g>
</g>
</svg>
